<svg width="28" height="28" viewBox="0 0 28 28" fill="none" xmlns="http://www.w3.org/2000/svg">
<g id="Huge-icon/interface/bulk/apps-add">
<path id="Rectangle 327" opacity="0.4" d="M1.83984 4.21749C1.83984 2.92882 2.88451 1.88416 4.17318 1.88416H9.91707C11.2057 1.88416 12.2504 2.92882 12.2504 4.21749V9.96138C12.2504 11.25 11.2057 12.2947 9.91707 12.2947H4.17318C2.88451 12.2947 1.83984 11.25 1.83984 9.96138V4.21749Z" fill="white"/>
<path id="Rectangle 330" opacity="0.4" d="M15.75 18.1281C15.75 16.8394 16.7947 15.7947 18.0833 15.7947H23.8272C25.1159 15.7947 26.1606 16.8394 26.1606 18.1281V23.872C26.1606 25.1606 25.1159 26.2053 23.8272 26.2053H18.0833C16.7947 26.2053 15.75 25.1606 15.75 23.872V18.1281Z" fill="white"/>
<circle id="Ellipse 1071" cx="7.04512" cy="21" r="5.20528" fill="white"/>
<g id="Vector 838 (Stroke)">
<path fill-rule="evenodd" clip-rule="evenodd" d="M21.0007 2.33331C21.4839 2.33331 21.8757 2.72506 21.8757 3.20831V6.12498H24.7923C25.2756 6.12498 25.6673 6.51673 25.6673 6.99998C25.6673 7.48323 25.2756 7.87498 24.7923 7.87498H21.8757V10.7916C21.8757 11.2749 21.4839 11.6666 21.0007 11.6666C20.5174 11.6666 20.1257 11.2749 20.1257 10.7916V7.87498H17.209C16.7257 7.87498 16.334 7.48323 16.334 6.99998C16.334 6.51673 16.7257 6.12498 17.209 6.12498H20.1257V3.20831C20.1257 2.72506 20.5174 2.33331 21.0007 2.33331Z" fill="white"/>
</g>
</g>
</svg>
