<svg width="44" height="44" viewBox="0 0 44 44" fill="none" xmlns="http://www.w3.org/2000/svg">
<g id="Huge-icon/files and folder/bulk/archive">
<path id="Vector 385" opacity="0.6" d="M3.66602 11V33C3.66602 37.05 6.94926 40.3333 10.9993 40.3333H21.9993V3.66663H10.9993C6.94926 3.66663 3.66602 6.94987 3.66602 11Z" fill="white"/>
<path id="Vector 389 (Stroke)" fill-rule="evenodd" clip-rule="evenodd" d="M8.70898 11C8.70898 10.2406 9.32459 9.625 10.084 9.625L15.584 9.625C16.3434 9.625 16.959 10.2406 16.959 11C16.959 11.7594 16.3434 12.375 15.584 12.375L10.084 12.375C9.32459 12.375 8.70898 11.7594 8.70898 11Z" fill="white"/>
<path id="Vector 390 (Stroke)" fill-rule="evenodd" clip-rule="evenodd" d="M8.70898 18.3334C8.70898 17.574 9.32459 16.9584 10.084 16.9584H15.584C16.3434 16.9584 16.959 17.574 16.959 18.3334C16.959 19.0928 16.3434 19.7084 15.584 19.7084H10.084C9.32459 19.7084 8.70898 19.0928 8.70898 18.3334Z" fill="white"/>
<path id="Subtract" fill-rule="evenodd" clip-rule="evenodd" d="M40.3333 11V33C40.3333 37.05 37.0501 40.3333 33 40.3333H22V3.66663H33C37.0501 3.66663 40.3333 6.94987 40.3333 11ZM28.4167 9.62496C27.6573 9.62496 27.0417 10.2406 27.0417 11C27.0417 11.7594 27.6573 12.375 28.4167 12.375H33.9167C34.6761 12.375 35.2917 11.7594 35.2917 11C35.2917 10.2406 34.6761 9.62496 33.9167 9.62496H28.4167ZM27.0417 18.3333C27.0417 17.5739 27.6573 16.9583 28.4167 16.9583H33.9167C34.6761 16.9583 35.2917 17.5739 35.2917 18.3333C35.2917 19.0927 34.6761 19.7083 33.9167 19.7083H28.4167C27.6573 19.7083 27.0417 19.0927 27.0417 18.3333ZM31.1667 33.9166C32.1792 33.9166 33 33.0958 33 32.0833C33 31.0708 32.1792 30.25 31.1667 30.25C30.1541 30.25 29.3333 31.0708 29.3333 32.0833C29.3333 33.0958 30.1541 33.9166 31.1667 33.9166Z" fill="white"/>
<path id="Ellipse 95" d="M14.6667 32.0833C14.6667 33.0959 13.8459 33.9167 12.8333 33.9167C11.8208 33.9167 11 33.0959 11 32.0833C11 31.0708 11.8208 30.25 12.8333 30.25C13.8459 30.25 14.6667 31.0708 14.6667 32.0833Z" fill="white"/>
</g>
</svg>
