<svg width="44" height="44" viewBox="0 0 44 44" fill="none" xmlns="http://www.w3.org/2000/svg">
<g id="Huge-icon/files and folder/bulk/archive 01">
<path id="Subtract" fill-rule="evenodd" clip-rule="evenodd" d="M36.6673 24.1463V11C36.6673 6.94987 33.3841 3.66663 29.334 3.66663H14.6673C10.6172 3.66663 7.33398 6.94987 7.33398 11V24.1463C7.90741 23.9436 8.52449 23.8333 9.16732 23.8333H11.0007C12.1548 23.8333 13.2415 24.3767 13.934 25.3L16.134 28.2333C17.5189 30.0799 19.6924 31.1666 22.0007 31.1666C24.3089 31.1666 26.4824 30.0799 27.8673 28.2333L30.0673 25.3C30.7598 24.3767 31.8465 23.8333 33.0007 23.8333H34.834C35.4768 23.8333 36.0939 23.9436 36.6673 24.1463ZM16.5007 16.9583C15.7413 16.9583 15.1257 17.5739 15.1257 18.3333C15.1257 19.0927 15.7413 19.7083 16.5007 19.7083H22.0007C22.76 19.7083 23.3757 19.0927 23.3757 18.3333C23.3757 17.5739 22.76 16.9583 22.0007 16.9583H16.5007ZM15.1257 11C15.1257 10.2406 15.7413 9.62496 16.5007 9.62496H27.5007C28.26 9.62496 28.8757 10.2406 28.8757 11C28.8757 11.7594 28.26 12.375 27.5007 12.375H16.5007C15.7413 12.375 15.1257 11.7594 15.1257 11Z" fill="white"/>
<path id="Vector 271" opacity="0.6" d="M40.3327 34.8334V29.3334C40.3327 26.2958 37.8703 23.8334 34.8327 23.8334H32.9993C31.8452 23.8334 30.7585 24.3768 30.066 25.3L27.866 28.2334C26.4811 30.0799 24.3076 31.1667 21.9993 31.1667C19.6911 31.1667 17.5176 30.08 16.1327 28.2334L13.9327 25.3C13.2402 24.3768 12.1535 23.8334 10.9993 23.8334H9.16602C6.12845 23.8334 3.66602 26.2958 3.66602 29.3334V34.8334C3.66602 37.8709 6.12845 40.3334 9.16601 40.3334H34.8327C37.8703 40.3334 40.3327 37.8709 40.3327 34.8334Z" fill="white"/>
</g>
</svg>
