<svg width="38" height="39" viewBox="0 0 38 39" fill="none" xmlns="http://www.w3.org/2000/svg">
<g id="briefcase">
<path id="Rectangle 392" opacity="0.6" d="M0.666016 16.2381C0.666016 12.2 3.94926 8.92657 7.99935 8.92657H29.9993C34.0494 8.92657 37.3327 12.2 37.3327 16.2381V30.8611C37.3327 34.8991 34.0494 38.1726 29.9993 38.1726H7.99935C3.94926 38.1726 0.666016 34.8991 0.666016 30.8611V16.2381Z" fill="white"/>
<path id="Vector 998 (Stroke)" opacity="0.6" fill-rule="evenodd" clip-rule="evenodd" d="M17.166 2.98595C14.8878 2.98595 13.041 4.82728 13.041 7.09867V10.7544C13.041 11.5116 12.4254 12.1253 11.666 12.1253C10.9066 12.1253 10.291 11.5116 10.291 10.7544V7.09867C10.291 3.31302 13.3691 0.244141 17.166 0.244141H20.8327C24.6296 0.244141 27.7077 3.31302 27.7077 7.09867V10.7544C27.7077 11.5116 27.0921 12.1253 26.3327 12.1253C25.5733 12.1253 24.9577 11.5116 24.9577 10.7544V7.09867C24.9577 4.82728 23.1109 2.98595 20.8327 2.98595H17.166Z" fill="white"/>
<path id="Vector" d="M29.9993 8.92657H7.99935C3.94926 8.92657 0.666016 12.2 0.666016 16.2381V18.066C0.666016 18.066 11.8397 25.3775 18.9993 25.3775C26.159 25.3775 37.3327 18.066 37.3327 18.066V16.2381C37.3327 12.2 34.0494 8.92657 29.9993 8.92657Z" fill="white"/>
<path id="Ellipse 708" d="M22.6654 25.3774C22.6654 27.3964 21.0237 29.0332 18.9987 29.0332C16.9737 29.0332 15.332 27.3964 15.332 25.3774C15.332 23.3584 16.9737 21.7217 18.9987 21.7217C21.0237 21.7217 22.6654 23.3584 22.6654 25.3774Z" fill="white"/>
</g>
</svg>
