<svg width="34" height="33" viewBox="0 0 34 33" fill="none" xmlns="http://www.w3.org/2000/svg">
<g id="call user">
<g id="Vector">
<path d="M26.35 7.39988H29.65C31.7763 7.39988 33.5 9.11845 33.5 11.2384C33.5 12.6517 32.3509 13.7974 30.9333 13.7974H25.0667C23.6491 13.7974 22.5 12.6517 22.5 11.2384C22.5 9.11845 24.2237 7.39988 26.35 7.39988Z" fill="white"/>
<path d="M31.6667 3.74413C31.6667 5.76315 30.025 7.39988 28 7.39988C25.975 7.39988 24.3333 5.76315 24.3333 3.74413C24.3333 1.72511 25.975 0.0883789 28 0.0883789C30.025 0.0883789 31.6667 1.72511 31.6667 3.74413Z" fill="white"/>
</g>
<path id="Rectangle 58" opacity="0.6" d="M33.5 29.3344V26.3258C33.5 24.831 32.5872 23.4867 31.1951 22.9315L27.4658 21.4443C25.6953 20.7382 23.6773 21.5031 22.8245 23.2037L22.5 23.8508C22.5 23.8508 17.9167 22.9368 14.25 19.2811C10.5833 15.6253 9.66667 11.0556 9.66667 11.0556L10.3157 10.7321C12.0214 9.88179 12.7886 7.86989 12.0803 6.10457L10.5886 2.38642C10.0318 0.998483 8.68353 0.0883789 7.18421 0.0883789H4.16667C2.14162 0.0883789 0.5 1.72511 0.5 3.74413C0.5 19.8963 13.633 32.9901 29.8333 32.9901C31.8584 32.9901 33.5 31.3534 33.5 29.3344Z" fill="white"/>
</g>
</svg>
