<svg width="38" height="30" viewBox="0 0 38 30" fill="none" xmlns="http://www.w3.org/2000/svg">
<g id="devices">
<path id="Subtract" opacity="0.6" fill-rule="evenodd" clip-rule="evenodd" d="M7.9987 0.333374H29.9987C31.9724 0.333374 33.5819 1.89279 33.6622 3.84674H24.3148C22.2898 3.84674 20.6482 5.48836 20.6482 7.51341V24.1667H4.33203V4.00004C4.33203 1.975 5.97365 0.333374 7.9987 0.333374Z" fill="white"/>
<path id="Rectangle 968" d="M22.666 9.50004C22.666 7.475 24.3076 5.83337 26.3327 5.83337H33.666C35.6911 5.83337 37.3327 7.475 37.3327 9.50004V26C37.3327 28.0251 35.6911 29.6667 33.666 29.6667H26.3327C24.3076 29.6667 22.666 28.0251 22.666 26V9.50004Z" fill="white"/>
<path id="Rectangle 970" d="M20.8327 24.1667H3.41602C1.89723 24.1667 0.666016 25.398 0.666016 26.9167C0.666016 28.4355 1.89723 29.6667 3.41602 29.6667H20.8327V24.1667Z" fill="white"/>
</g>
</svg>
