<svg width="44" height="44" viewBox="0 0 44 44" fill="none" xmlns="http://www.w3.org/2000/svg">
<g id="Huge-icon/interface/bulk/home 01">
<g id="Rectangle 1124" opacity="0.6">
<path d="M4.5727 19.6331C3.16124 18.0271 3.43002 15.5572 5.15392 14.292L17.7069 5.07974C20.2765 3.19393 23.774 3.19584 26.3416 5.08445L38.848 14.2836C40.5566 15.5404 40.8346 17.9844 39.4519 19.5925L38.5952 20.5889C37.7429 21.5801 37.2743 22.8438 37.2743 24.1508V33.047C37.2743 37.0711 34.0106 40.3334 29.9846 40.3334H14.0673C10.0413 40.3334 6.77764 37.0711 6.77764 33.047V24.2014C6.77764 22.874 6.29429 21.592 5.41786 20.5948L4.5727 19.6331Z" fill="white"/>
</g>
<circle id="Ellipse 1245" cx="22" cy="29.3333" r="5.5" fill="white"/>
</g>
</svg>
