<svg width="38" height="34" viewBox="0 0 38 34" fill="none" xmlns="http://www.w3.org/2000/svg">
<g id="id card">
<path id="Rectangle 34" opacity="0.6" d="M0.666016 7.67088C0.666016 3.63285 3.94926 0.359375 7.99935 0.359375H29.9993C34.0494 0.359375 37.3327 3.63285 37.3327 7.67088V25.9496C37.3327 29.9877 34.0494 33.2611 29.9993 33.2611H7.99935C3.94926 33.2611 0.666016 29.9877 0.666016 25.9496V7.67088Z" fill="white"/>
<g id="Vector">
<path fill-rule="evenodd" clip-rule="evenodd" d="M23.1243 20.466C23.1243 19.7089 23.74 19.0951 24.4993 19.0951H29.9993C30.7587 19.0951 31.3743 19.7089 31.3743 20.466C31.3743 21.2232 30.7587 21.8369 29.9993 21.8369H24.4993C23.74 21.8369 23.1243 21.2232 23.1243 20.466ZM23.1243 25.9496C23.1243 25.1925 23.74 24.5787 24.4993 24.5787H29.9993C30.7587 24.5787 31.3743 25.1925 31.3743 25.9496C31.3743 26.7068 30.7587 27.3206 29.9993 27.3206H24.4993C23.74 27.3206 23.1243 26.7068 23.1243 25.9496Z" fill="white"/>
<path d="M13.4993 5.84302H9.83268C7.80764 5.84302 6.16602 7.47975 6.16602 9.49877C6.16602 11.5178 7.80764 13.1545 9.83268 13.1545H13.4993C15.5244 13.1545 17.166 11.5178 17.166 9.49877C17.166 7.47975 15.5244 5.84302 13.4993 5.84302Z" fill="white"/>
</g>
</g>
</svg>
